<svg width="25" height="21" viewBox="0 0 25 21" fill="#ffff" xmlns="http://www.w3.org/2000/svg">
<path d="M9.09091 14.7727H16.4773C18.0455 14.7727 19.3182 13.5 19.3182 11.9318C19.3182 10.3636 18.0455 9.09091 16.4773 9.09091H16.4205C16.1477 7.17045 14.5 5.68182 12.5 5.68182C10.9091 5.68182 9.54545 6.625 8.90909 7.97727H8.72727C7.01136 8.15909 5.68182 9.60227 5.68182 11.3636C5.68182 13.25 7.20455 14.7727 9.09091 14.7727ZM22.7273 0H2.27273C1.02273 0 0 1.02273 0 2.27273V18.1818C0 19.4318 1.02273 20.4545 2.27273 20.4545H22.7273C23.9773 20.4545 25 19.4318 25 18.1818V2.27273C25 1.02273 23.9773 0 22.7273 0ZM22.7273 18.1932H2.27273V2.26136H22.7273V18.1932Z" fill="black"/>
</svg>
